# xmcd
#
# Track frame offsets: 
#        150
#        12751
#        33161
#        51789
#        64693
#        78123
#        93972
#        109566
#        132104
#        146703
#        160443
#        175394
#        194001
#
# Disc length: 2829 seconds
#
# Revision: 1
# Processed by: cddbd v1.5.2PL0 Copyright (c) Steve Scherf et al.
# Submitted via: ExactAudioCopyFreeDBPlugin 1.0
#
DISCID=a60b0b0d
DTITLE=Becky Schlegel - Heartaches
DYEAR=2008
DGENRE=Country
TTITLE0=Hearaches By The Number
TTITLE1=If You Leave Me
TTITLE2=Early
TTITLE3=Pick Me Up On Your Way Down
TTITLE4=Easy From Now On
TTITLE5=Country Sunshine
TTITLE6=Don't Be Angry
TTITLE7=Don't Let Me Cross Over
TTITLE8=These Hills I Love
TTITLE9=Together Again
TTITLE10=All The Tears
TTITLE11=I Never Once Stopped Loving You
TTITLE12=Paper Roses
EXTD=
EXTT0=
EXTT1=
EXTT2=
EXTT3=
EXTT4=
EXTT5=
EXTT6=
EXTT7=
EXTT8=
EXTT9=
EXTT10=
EXTT11=
EXTT12=
PLAYORDER=
